<?xml version="1.0"?>
<svg xmlns:rdf="http://www.w3.org/1999/02/22-rdf-syntax-ns#" xmlns="http://www.w3.org/2000/svg" xmlns:cc="http://web.resource.org/cc/" xmlns:dc="http://purl.org/dc/elements/1.1/" id="svg2" viewBox="0 0 162 162" version="1.0">
 <g id="layer1">
  <g id="g2292" transform="translate(1.5 3)">
   <path id="path3241" d="m157 78c0 41.95-34.72 76-77.5 76s-77.5-34.05-77.5-76c0-41.952 34.72-76 77.5-76s77.5 34.048 77.5 76z" fill="#5c3566"/>
   <path id="path3239" d="m155.58 78c0 41.18-34.08 74.61-76.08 74.61-41.997 0-76.082-33.43-76.082-74.61-0.0003-41.185 34.085-74.61 76.082-74.61 42 0.0003 76.08 33.425 76.08 74.61z" fill="#e9b96e"/>
   <path id="rect2160" d="m19.625 68.906l11.813 66.904c13.107 10.5 29.833 16.81 48.062 16.81 18.051 0 34.61-6.21 47.66-16.53l7.46-52.184-115-15z" fill="#75507b"/>
   <path id="path3134" fill="#5c3566" d="m149.63 96.902l-145-12.786 45.002-51.143 79.998 8.524 20 55.405z"/>
   <path id="rect3136" d="m64.625 113.91l4.75 38.03c3.311 0.43 6.694 0.68 10.125 0.68 3.517 0 6.984-0.26 10.375-0.71l4.75-38h-30z" fill="#eeeeec"/>
   <path id="path3139" fill="#ad7fa8" d="m69.632 118.9h20l-5 15h-10l-5-15z"/>
   <path id="path3141" d="m86.132 138.9c0 1.38-1.12 2.5-2.5 2.5s-2.5-1.12-2.5-2.5 1.12-2.5 2.5-2.5 2.5 1.12 2.5 2.5z" fill="#ad7fa8"/>
   <path id="path3147" fill="#eeeeec" d="m104.63 103.9h20l-4.63 28.1-20 2 4.63-30.1z"/>
   <path id="path3151" d="m119.99 70.473c0 5.52-4.48 10-10 10s-10.001-4.48-10.001-10 4.481-10 10.001-10 10 4.48 10 10z" fill="#eeeeec"/>
   <path id="path3153" fill="#eeeeec" d="m54.632 103.9h-20l5.368 30.1 20-5-5.368-25.1z"/>
   <path id="path3155" d="m43.489 102.84l4.202 30.16h3.309l-4.202-30.16h-3.309z" fill="#75507b"/>
   <path id="path3160" d="m116 102.65l-3.92 32.35h-3.08l3.92-32.35h3.08z" fill="#75507b"/>
   <path id="path3162" d="m60 111.34l-25.662-2.69-1.646 2.66 25.662 2.69 1.646-2.66z" fill="#75507b"/>
   <path id="path3164" d="m98.598 113.13l25.752-2.91 1.65 2.88-25.75 2.9-1.652-2.87z" fill="#75507b"/>
   <path id="path3170" d="m109.19 58.722l-1.25 10.188-9.063-1.406-1.531 3.656 10.124 1.594-1.09 8.843 3.68 1.344 1.19-9.594 9.85 1.532 1.53-3.657-10.91-1.718 1.19-9.438-3.72-1.344z" fill="#5c3566"/>
   <path id="path3203" d="m42.489 64.402c0 5.52 4.48 10 10 10s10-4.48 10-10-4.48-10-10-10-10 4.48-10 10z" fill="#eeeeec"/>
   <path id="path3205" d="m52.578 52.66l-3.719 1.312 1.188 9.469-10.906 1.688 1.531 3.656 9.844-1.531 1.187 9.593 3.688-1.312-1.094-8.875 10.125-1.563-1.531-3.656-9.063 1.406-1.25-10.187z" fill="#5c3566"/>
   <path id="rect3209" fill="#75507b" d="m110.97 29.576l12.15-2.143-1.43 20-15.36-1.786 4.64-16.071z"/>
   <path id="rect3212" fill="#75507b" d="m107.4 24.576l18.93 1.428 0.36 5.358-19.29-2.143v-4.643z"/>
   <path id="path2196" d="m98 125.34l25.75-2.69 1.65 2.66-25.748 2.69-1.652-2.66z" fill="#75507b"/>
   <path id="path2198" d="m62 122.34l-26.602-2.69-1.706 2.66 26.601 2.69 1.707-2.66z" fill="#75507b"/>
  </g>
 </g>
 <metadata>
  <rdf:RDF>
   <cc:Work>
    <dc:format>image/svg+xml</dc:format>
    <dc:type rdf:resource="http://purl.org/dc/dcmitype/StillImage"/>
    <cc:license rdf:resource="http://creativecommons.org/licenses/publicdomain/"/>
    <dc:publisher>
     <cc:Agent rdf:about="http://openclipart.org/">
      <dc:title>Openclipart</dc:title>
     </cc:Agent>
    </dc:publisher>
   </cc:Work>
   <cc:License rdf:about="http://creativecommons.org/licenses/publicdomain/">
    <cc:permits rdf:resource="http://creativecommons.org/ns#Reproduction"/>
    <cc:permits rdf:resource="http://creativecommons.org/ns#Distribution"/>
    <cc:permits rdf:resource="http://creativecommons.org/ns#DerivativeWorks"/>
   </cc:License>
  </rdf:RDF>
 </metadata>
</svg>
